<svg width="20" height="20" viewBox="0 0 20 20" fill="none" xmlns="http://www.w3.org/2000/svg">
<g clip-path="url(#clip0_10_1579)">
<path d="M2.49328 13.6184C2.61581 13.9275 2.64309 14.2662 2.57161 14.5909L1.68411 17.3326C1.65552 17.4716 1.66291 17.6156 1.70559 17.751C1.74827 17.8864 1.82483 18.0086 1.928 18.1061C2.03117 18.2036 2.15754 18.2732 2.29511 18.3081C2.43269 18.3431 2.57691 18.3423 2.71411 18.3059L5.55828 17.4742C5.86471 17.4135 6.18205 17.44 6.47411 17.5509C8.2536 18.3819 10.2694 18.5577 12.1659 18.0473C14.0624 17.5369 15.7177 16.3731 16.8397 14.7612C17.9617 13.1493 18.4784 11.1929 18.2985 9.23719C18.1187 7.28148 17.2539 5.45213 15.8567 4.0719C14.4595 2.69167 12.6197 1.84927 10.6619 1.69332C8.70416 1.53737 6.75423 2.07789 5.15615 3.21952C3.55807 4.36115 2.41456 6.03052 1.92736 7.9331C1.44016 9.83568 1.64059 11.8492 2.49328 13.6184Z" stroke="white" stroke-width="1.66667" stroke-linecap="round" stroke-linejoin="round"/>
</g>
<defs>
<clipPath id="clip0_10_1579">
<rect width="20" height="20" fill="white"/>
</clipPath>
</defs>
</svg>
