<svg width="14" height="14" viewBox="0 0 14 14" fill="none" xmlns="http://www.w3.org/2000/svg">
<g clip-path="url(#clip0_9_44)">
<path d="M1.74536 9.53298C1.83113 9.74935 1.85023 9.98642 1.80019 10.2137L1.17894 12.1329C1.15892 12.2302 1.1641 12.3311 1.19398 12.4258C1.22385 12.5206 1.27744 12.6061 1.34966 12.6744C1.42188 12.7426 1.51034 12.7913 1.60664 12.8158C1.70294 12.8402 1.8039 12.8397 1.89994 12.8142L3.89086 12.2321C4.10536 12.1895 4.3275 12.2081 4.53194 12.2857C5.77758 12.8674 7.18865 12.9905 8.51619 12.6332C9.84373 12.276 11.0024 11.4613 11.7878 10.3329C12.5733 9.20461 12.9349 7.83513 12.809 6.46613C12.6831 5.09713 12.0778 3.81659 11.0997 2.85043C10.1217 1.88427 8.83385 1.29459 7.46341 1.18542C6.09298 1.07625 4.72802 1.45462 3.60936 2.25376C2.49071 3.0529 1.69025 4.22146 1.34921 5.55327C1.00817 6.88507 1.14847 8.29454 1.74536 9.53298Z" stroke="#6A7282" stroke-width="1.16667" stroke-linecap="round" stroke-linejoin="round"/>
</g>
<defs>
<clipPath id="clip0_9_44">
<rect width="14" height="14" fill="white"/>
</clipPath>
</defs>
</svg>
