<svg width="16" height="16" viewBox="0 0 16 16" fill="none" xmlns="http://www.w3.org/2000/svg">
<path d="M7.60296 12.8002C7.48985 12.8002 7.3944 12.7619 7.31662 12.6852C7.23885 12.6085 7.19996 12.5135 7.19996 12.4002V8.61686L3.28329 3.8502C3.18329 3.71686 3.16807 3.5752 3.23762 3.4252C3.30707 3.2752 3.42785 3.2002 3.59996 3.2002H12.4C12.5721 3.2002 12.6928 3.2752 12.7623 3.4252C12.8318 3.5752 12.8166 3.71686 12.7166 3.8502L8.79996 8.61686V12.4002C8.79996 12.5135 8.76173 12.6085 8.68529 12.6852C8.60873 12.7619 8.51396 12.8002 8.40096 12.8002H7.60296ZM7.99996 7.7002L10.7 4.4002H5.28329L7.99996 7.7002Z" fill="#050000"/>
</svg>
