<svg width="12" height="12" viewBox="0 0 12 12" fill="none" xmlns="http://www.w3.org/2000/svg">
<g clip-path="url(#clip0_3_134)">
<path d="M3.5 5V11" stroke="#6A7282" stroke-linecap="round" stroke-linejoin="round"/>
<path d="M7.5 2.94L7 5H9.915C10.0702 5 10.2234 5.03614 10.3622 5.10557C10.5011 5.175 10.6219 5.2758 10.715 5.4C10.8081 5.5242 10.8711 5.66837 10.8989 5.82111C10.9266 5.97386 10.9185 6.13096 10.875 6.28L9.71 10.28C9.64942 10.4877 9.5231 10.6702 9.35 10.8C9.1769 10.9298 8.96637 11 8.75 11H2C1.73478 11 1.48043 10.8946 1.29289 10.7071C1.10536 10.5196 1 10.2652 1 10V6C1 5.73478 1.10536 5.48043 1.29289 5.29289C1.48043 5.10536 1.73478 5 2 5H3.38C3.56604 4.9999 3.74837 4.94791 3.90648 4.84986C4.06459 4.75181 4.19221 4.61161 4.275 4.445L6 1C6.23579 1.00292 6.46787 1.05908 6.6789 1.1643C6.88994 1.26951 7.07446 1.42105 7.2187 1.6076C7.36294 1.79415 7.46316 2.01088 7.51187 2.2416C7.56058 2.47232 7.55652 2.71107 7.5 2.94Z" stroke="#6A7282" stroke-linecap="round" stroke-linejoin="round"/>
</g>
<defs>
<clipPath id="clip0_3_134">
<rect width="12" height="12" fill="white"/>
</clipPath>
</defs>
</svg>
