<svg width="14" height="14" viewBox="0 0 14 14" fill="none" xmlns="http://www.w3.org/2000/svg">
<path d="M1.16663 5.54149C1.16664 4.89235 1.36356 4.25849 1.73137 3.72362C2.09919 3.18875 2.62059 2.77804 3.22673 2.54572C3.83287 2.3134 4.49522 2.27041 5.1263 2.42243C5.75738 2.57445 6.32751 2.91432 6.76138 3.39715C6.79193 3.42983 6.82888 3.45588 6.86992 3.47369C6.91096 3.4915 6.95522 3.50069 6.99996 3.50069C7.0447 3.50069 7.08896 3.4915 7.13 3.47369C7.17104 3.45588 7.20798 3.42983 7.23854 3.39715C7.67105 2.91118 8.2413 2.56845 8.87341 2.41459C9.50552 2.26072 10.1695 2.30302 10.777 2.53585C11.3844 2.76868 11.9066 3.181 12.2739 3.71793C12.6413 4.25486 12.8364 4.89093 12.8333 5.54149C12.8333 6.87732 11.9583 7.87482 11.0833 8.74982L7.87963 11.8491C7.77093 11.9739 7.63692 12.0742 7.48649 12.1432C7.33605 12.2123 7.17265 12.2486 7.00713 12.2496C6.84161 12.2507 6.67775 12.2165 6.52646 12.1493C6.37517 12.0822 6.23989 11.9836 6.12963 11.8602L2.91663 8.74982C2.04163 7.87482 1.16663 6.88315 1.16663 5.54149Z" stroke="#6A7282" stroke-width="1.16667" stroke-linecap="round" stroke-linejoin="round"/>
</svg>
