<svg width="13" height="12" viewBox="0 0 13 12" fill="none" xmlns="http://www.w3.org/2000/svg">
<path d="M0.583374 3.80125C0.583386 3.15212 0.780304 2.51826 1.14812 1.98339C1.51593 1.44852 2.03734 1.0378 2.64348 0.805485C3.24962 0.573168 3.91197 0.530178 4.54305 0.682195C5.17413 0.834211 5.74425 1.17408 6.17812 1.65692C6.20868 1.68959 6.24563 1.71564 6.28667 1.73345C6.32771 1.75126 6.37197 1.76045 6.41671 1.76045C6.46145 1.76045 6.50571 1.75126 6.54675 1.73345C6.58779 1.71564 6.62473 1.68959 6.65529 1.65692C7.0878 1.17094 7.65805 0.828217 8.29016 0.674353C8.92227 0.52049 9.58624 0.562788 10.1937 0.795618C10.8012 1.02845 11.3233 1.44077 11.6907 1.97769C12.058 2.51462 12.2531 3.1507 12.25 3.80125C12.25 5.13709 11.375 6.13459 10.5 7.00959L7.29637 10.1088C7.18768 10.2337 7.05367 10.334 6.90323 10.403C6.7528 10.4721 6.5894 10.5083 6.42388 10.5094C6.25835 10.5104 6.0945 10.4762 5.94321 10.4091C5.79191 10.3419 5.65664 10.2434 5.54637 10.1199L2.33337 7.00959C1.45837 6.13459 0.583374 5.14292 0.583374 3.80125Z" fill="#FB2C36" stroke="#FB2C36" stroke-width="1.16667" stroke-linecap="round" stroke-linejoin="round"/>
</svg>
